<?xml version="1.0" standalone="no"?>
<!DOCTYPE svg PUBLIC "-//W3C//DTD SVG 1.1//EN" "http://www.w3.org/Graphics/SVG/1.1/DTD/svg11.dtd" >
<svg xmlns="http://www.w3.org/2000/svg">
<metadata>Generated by IcoMoon</metadata>
<defs>
<font id="icomoon" horiz-adv-x="1024">
<font-face units-per-em="1024" ascent="960" descent="-64" />
<missing-glyph horiz-adv-x="1024" />
<glyph unicode="&#x20;" horiz-adv-x="512" d="" />
<glyph unicode="&#xe900;" glyph-name="i-coba" d="M268.704 896.928l477.952-0.8 277.344-480.128-240.032-416.928h-545.184l-238.752 417.888 268.704 480zM513.44 800.672l-320.896-577.664h641.824l-320.928 577.664z" />
<glyph unicode="&#xe901;" glyph-name="i-burger" d="M0 294.4h1024v-102.4h-1024v102.4zM0 704h1024v-102.4h-1024v102.4z" />
<glyph unicode="&#xe902;" glyph-name="i-arrow-down" d="M563.2 185.6l444.8 444.8c22.4 22.4 22.4 60.8 0 83.2s-60.8 22.4-83.2 0l-412.8-416-412.8 412.8c-22.4 22.4-57.6 22.4-83.2 0-22.4-22.4-22.4-60.8 0-83.2l444.8-444.8c12.8-12.8 32-19.2 51.2-16 19.2 0 38.4 3.2 51.2 19.2v0z" />
<glyph unicode="&#xe903;" glyph-name="i-arrow-left" d="M248.576 499.040l443.872 444.032c22.656 22.56 59.36 22.56 82.048 0 22.56-23.2 22.56-59.744 0-82.336l-412.832-412.704 412.832-412.704c22.56-22.624 22.56-59.136 0-82.336-22.688-22.56-59.392-22.56-82.048 0l-443.872 444.032c-13.856 13.92-18.176 33.056-15.008 51.040-3.168 17.952 1.152 37.12 15.008 51.040z" />
<glyph unicode="&#xe904;" glyph-name="i-arrow-right" d="M775.424 499.040l-443.872 444.032c-22.656 22.56-59.36 22.56-82.048 0-22.56-23.2-22.56-59.744 0-82.336l412.832-412.704-412.832-412.704c-22.56-22.624-22.56-59.136 0-82.336 22.688-22.56 59.392-22.56 82.048 0l443.872 444.032c13.856 13.92 18.176 33.056 15.008 51.040 3.168 17.952-1.152 37.12-15.008 51.040z" />
<glyph unicode="&#xe905;" glyph-name="i-arrow-up" d="M563.040 711.424l444.032-443.872c22.56-22.656 22.56-59.36 0-82.048-23.2-22.56-59.744-22.56-82.336 0l-412.704 412.832-412.704-412.832c-22.624-22.56-59.136-22.56-82.336 0-22.56 22.688-22.56 59.392 0 82.048l444.032 443.872c13.92 13.856 33.056 18.176 51.040 15.008 17.952 3.168 37.12-1.152 51.040-15.008z" />
<glyph unicode="&#xe906;" glyph-name="i-close" d="M333.824 448l-296.96 296.96c-49.152 49.152-49.152 128.992 0 178.176 49.184 49.152 129.024 49.152 178.176 0l296.96-296.96 296.96 296.96c49.152 49.152 128.992 49.152 178.176 0 49.152-49.184 49.152-129.024 0-178.176l-296.96-296.96 296.96-296.96c49.152-49.152 49.152-128.992 0-178.176-49.184-49.152-129.024-49.152-178.176 0l-296.96 296.96-296.96-296.96c-49.152-49.152-128.992-49.152-178.176 0-49.152 49.184-49.152 129.024 0 178.176l296.96 296.96z" />
<glyph unicode="&#xe907;" glyph-name="i-arrow-link" d="M500.256-5.248l523.744 453.248-523.744 453.248v-283.424h-500.256v-339.584h500.256v-283.488z" />
<glyph unicode="&#xe908;" glyph-name="i-chat" d="M0 264.192h210.048v-315.040l314.72 315.040h499.232v682.656h-1024v-682.656z" />
<glyph unicode="&#xe909;" glyph-name="i-check" d="M13.056 360.96c-8.704 7.904-13.056 17.568-13.056 29.024s4.352 21.12 13.056 29.024l101.632 104.128c7.808 7.904 17.376 11.84 28.672 11.84s21.312-3.968 29.984-11.84l165.44-167.392c7.808-8.8 17.344-13.184 28.672-13.184s20.864 4.416 28.672 13.184l455.904 461.312c7.808 7.904 17.376 11.84 28.672 11.84s20.864-3.968 28.672-11.84l101.632-102.816c8.704-7.904 13.056-17.568 13.056-29.024s-3.904-21.12-11.712-29.024l-552.256-560.128c-7.808-7.904-18.656-14.72-32.544-20.416s-26.496-8.576-37.76-8.576h-46.88c-11.296 0-23.872 2.848-37.76 8.576s-24.768 12.512-32.576 20.416l-259.2 264.896h-0.256z" />
<glyph unicode="&#xe90a;" glyph-name="i-pencil" d="M971.296 908.928c35.104-35.104 52.704-70.24 52.704-105.344 0-4.608-0.928-12.448-2.784-23.552l-15.232-66.56v-1.376l-2.784-1.408-77.664-77.6c-2.784-2.784-6.016-4.192-9.696-4.192-5.536 0-8.8 1.408-9.728 4.192l-209.312 209.312c-2.784 2.784-4.128 6.432-4.128 11.104 0 4.608 1.376 7.392 4.128 8.32l76.256 77.6c0.928 0 2.304 0.928 4.192 2.784l23.552 8.32c13.856 5.536 31.872 8.32 54.048 8.32 46.208 0 85.024-16.64 116.448-49.92zM387.712 114.592l-209.312 210.72c-1.888 3.68-2.784 6.912-2.784 9.696s0.896 6.016 2.784 9.696l446.368 446.432c2.784 2.72 6.432 4.128 11.104 4.128 4.608 0 7.392-1.408 8.288-4.128l209.376-209.376c2.784-2.784 4.128-5.984 4.128-9.696s-1.376-6.944-4.128-9.696l-446.368-447.776c-2.784-2.784-6.016-4.192-9.728-4.192s-6.912 1.408-9.696 4.192zM3.712-58.656c-3.712 3.68-4.64 8.288-2.784 13.824l102.56 311.936c1.824 5.536 5.088 8.32 9.696 8.32 3.712 1.824 7.904 0.48 12.512-4.192l209.312-207.904c3.712-3.712 4.608-7.84 2.784-12.512 0-2.784-0.928-5.088-2.784-6.912s-3.712-2.784-5.536-2.784l-311.904-103.968h-4.192c-5.536 0-8.8 1.408-9.696 4.192z" />
<glyph unicode="&#xe90b;" glyph-name="i-phone" d="M992.512 157.664c0 0-208.736 124.288-240.928 137.696-32.224 13.344-52.448-8.736-74.336-29.152s-64.096-57.824-64.096-57.824c-23.648-3.488-67.712 16.608-142.432 73.856-74.72 57.184-161.504 168.48-187.104 205.6-25.568 37.12-26.016 77.696-26.016 77.696s28.928 25.568 59.296 57.824c30.304 32.288 21.664 64.416 21.664 64.416l-93.856 173.92c-58.080 121.568-71.456 96.096-71.456 96.096-38.144-13.824-70.912-44.288-92.8-66.4s-47.008-58.752-67.104-102.816c-20.192-44.128 21.088-182.656 21.088-182.656 70.272-196 236.832-359.456 236.832-359.456 161.504-168.48 324.448-269.312 466.72-300.8 142.24-31.52 170.784 24.416 170.784 24.416s58.784 80.8 92.416 121.632c33.696 40.736 0 42.464 0 42.464l-8.704 23.52z" />
<glyph unicode="&#xe90c;" glyph-name="i-post" d="M446.848 754.432c-106.464 0-192.8-86.496-192.8-192.992 0-106.464 86.368-192.928 192.8-192.928 106.88 0 193.12 86.496 193.12 192.928 0 106.496-86.304 192.992-193.12 192.992zM14.976 42.912l137.504 138.784h135.808l-137.216-138.784h-136.096zM334.592 42.912h-136.064l137.312 138.784h135.968l-137.216-138.784zM640.736 42.912l-137.472 138.784h136.16l137.184-138.784h-135.84zM824.096 42.912l-137.12 138.784h135.712l137.312-138.784h-135.904zM477.28 206.464c-356.384 0.384-494.176 310.24-475.648 545.312l104.704 33.152c-17.056-133.472 24.192-229.888 52.896-274.048-34.016 189.024 108.544 342.144 287.2 342.144 160.736 0.288 293.536-117.376 293.024-285.568 23.584 64.224 39.808 162.176 43.168 230.496l241.376-60.128c-19.296-283.040-231.808-531.328-546.72-531.328v-0.032z" />
<glyph unicode="&#xe90d;" glyph-name="i-smartphone" d="M748.832 960h-473.76c-21.344 0-39.168-7.424-53.504-22.24s-21.504-32.416-21.504-52.832v-873.952c0-21.344 7.392-39.136 22.24-53.504 14.816-14.336 32.416-21.504 52.832-21.504h473.76c20.384 0 38.016 7.168 52.832 21.504 14.848 14.368 22.24 32.16 22.24 53.504v873.952c0 20.384-7.392 38.016-22.24 52.832-14.816 14.816-32.416 22.24-52.832 22.24h-0.032zM511.232-13.984c-12.96 0-24.32 4.64-34.048 13.952-9.728 9.248-14.592 20.832-14.592 34.688 0 13.024 4.864 24.352 14.592 34.080 9.728 9.696 21.088 14.56 34.048 14.56 13.92 0 25.472-4.864 34.72-14.56 9.248-9.728 13.92-21.088 13.92-34.080 0-13.856-4.608-25.472-13.92-34.688-9.248-9.248-20.864-13.92-34.72-13.952zM766.88 134.688h-511.328v626.656h511.328v-626.656z" />
<glyph unicode="&#xe90e;" glyph-name="i-badge" d="M884.48 850.208c-133.408-67.072-295.968-19.040-371.552 109.792 0 0-124.8-219.52-373.12-109.792 0 0-146.848-588.128 372.48-914.208 517.76 326.112 372.192 914.208 372.192 914.208zM692.48 226.56c-13.44 6.752-28.8 15.072-47.36 26.24-26.656 15.072-55.84 25.248-86.112 30.080 9.344 10.464 17.12 22.176 23.040 34.912 7.040 14.304 13.856 29.824 20.48 46.72 4 9.312 6.272 19.296 6.752 29.44v64c0.768 10.208-0.224 20.48-2.912 30.368-3.872 23.072-17.504 43.392-37.408 55.68-37.6 18.72-81.792 18.72-119.392 0-19.872-12.16-33.536-32.352-37.408-55.328-2.592-9.952-3.36-20.224-2.272-30.432v-64c0.416-10.080 2.336-19.968 5.76-29.44 6.624-16.864 13.44-32.416 20.48-46.72 6.016-12.896 14.112-24.672 24.032-34.848-29.216-5.664-57.344-16.032-83.2-30.72-17.28-10.24-32-17.92-45.152-24.672-112.288 153.6-114.848 261.76-132.48 421.12h625.632c-18.912-160.288-21.76-268.448-134.112-422.4h1.632z" />
<glyph unicode="&#xe90f;" glyph-name="i-building" d="M479.392 709.376l-270.336-109.536v78.88l270.336 125.6v-94.976zM479.392 515.2l-270.336-75.776v80.384l270.72 92.8-0.384-97.408zM479.392 321.024l-270.336-42.144v80.384l270.72 59.040-0.384-97.28zM479.392 126.848l-270.336-8.352v80.384l270.72 25.248-0.384-97.28zM874.656 799.52l-31.488 14.592-74.912 34.432-230.112 106.72c-13.568 6.304-28.64 6.304-42.144 0l-336.128-155.744c-17.568-10.592-28.192-32.608-26.976-56.032v-693.024h-37.664c-26.464 3.488-50.208-19.296-53.12-50.784-2.912-31.52 16.16-59.904 42.592-63.36 3.488-0.48 7.040-0.48 10.528 0h844.064c26.4 3.456 45.472 31.84 42.592 63.36-2.464 26.72-20.128 47.84-42.592 50.784h-37.536v693.024c1.184 23.456-9.472 45.472-27.104 56.032z" />
<glyph unicode="&#xe910;" glyph-name="i-avatar-circle" d="M512 960c282.592 0 512-229.408 512-512s-229.408-512-512-512c-282.592 0-512 229.408-512 512s229.408 512 512 512zM823.296 126.624c83.968 81.376 136.192 195.296 136.192 321.376 0 247.008-200.48 447.488-447.488 447.488s-447.488-200.48-447.488-447.488c0-126.048 52.192-240 136.16-321.312v19.936c0.032 20.992 8.448 40.8 22.816 54.016 56.48 51.36 117.664 95.712 182.528 132.256 1.92 1.024 3.168 3.232 3.2 5.664v68.192c-8.736 16.896-14.688 35.456-17.568 54.752-6.816 0.544-15.712 11.36-25.312 49.632-13.28 52.448 0.672 58.88 12.544 58.88-2.176 7.008-3.872 14.176-5.024 21.408-4.608 22.752-4.608 46.304 0 69.024 5.92 26.848 18.208 51.328 35.584 70.688 9.824 11.808 20.864 22.112 32.896 30.816 9.76 7.808 20.576 14.112 31.904 18.592 9.376 3.584 19.104 5.664 28.96 6.144 25.376 3.104 50.944-3.040 73.056-17.504 14.976-9.184 27.36-22.88 35.808-39.552 0 0 58.848-4.896 39.008-140.544-1.12-7.264-2.816-14.464-4.992-21.408 12.544 1.28 25.568-7.264 12.544-58.88-9.6-38.272-18.464-49.632-25.344-49.632-3.232-18.848-9.472-36.896-18.432-53.216v-70.272c0-2.4 1.248-4.576 3.168-5.664 64.864-36.512 126.080-80.864 182.528-132.256 14.368-13.184 22.784-32.992 22.816-53.984l-0.032-17.152z" />
<glyph unicode="&#xe911;" glyph-name="i-trash" d="M934.4 688l-38.4 57.6c-3.2 6.4-9.6 9.6-16 12.8s-12.8 6.4-19.2 6.4h-89.6v76.8c0 6.4 0 12.8-3.2 19.2s-6.4 12.8-9.6 19.2l-64 64c-3.2 3.2-9.6 9.6-19.2 9.6s-16 6.4-22.4 6.4h-272c-6.4 0-12.8 0-22.4-3.2s-12.8-6.4-16-9.6l-60.8-64c-3.2-3.2-6.4-9.6-9.6-16s-3.2-16-3.2-22.4v-83.2h-92.8c-9.6 0-16 0-22.4-3.2s-9.6-9.6-12.8-12.8l-38.4-57.6c-3.2-6.4-6.4-9.6-3.2-12.8s6.4-6.4 9.6-6.4h64v-710.4c0-6.4 3.2-12.8 6.4-16 6.4-3.2 12.8-6.4 19.2-6.4h643.2c6.4 0 12.8 3.2 16 6.4s6.4 9.6 6.4 16v710.4h60.8c6.4 0 9.6 3.2 12.8 6.4s0 6.4-3.2 12.8v0 0 0zM358.4 768v41.6c0 6.4 0 12.8 3.2 19.2s6.4 12.8 9.6 19.2l6.4 6.4c3.2 3.2 9.6 9.6 19.2 9.6 6.4 3.2 12.8 3.2 19.2 3.2h195.2c6.4 0 12.8 0 19.2-3.2s12.8-6.4 19.2-9.6l9.6-12.8c9.6-6.4 12.8-9.6 16-19.2 3.2-6.4 3.2-12.8 3.2-22.4v-41.6h-320v9.6zM771.2 646.4v-598.4c0-6.4-3.2-12.8-6.4-16s-9.6-6.4-16-6.4h-457.6c-6.4 0-12.8 3.2-16 6.4s-6.4 9.6-6.4 16v598.4c0 6.4 3.2 12.8 6.4 16s9.6 6.4 16 6.4h460.8c6.4 0 9.6-3.2 16-6.4 3.2-3.2 3.2-9.6 3.2-16v0 0 0zM377.6 608h-25.6c-6.4 0-12.8-3.2-16-6.4s-6.4-9.6-6.4-16v-476.8c0-6.4 3.2-12.8 6.4-16s9.6-6.4 16-6.4h25.6c6.4 0 9.6 3.2 16 6.4 3.2 3.2 6.4 9.6 6.4 16v476.8c0 6.4-3.2 12.8-6.4 16s-9.6 6.4-16 6.4c0 0 0 0 0 0zM505.6 86.4h25.6c6.4 0 9.6 3.2 16 6.4 3.2 3.2 6.4 9.6 6.4 16v476.8c0 6.4-3.2 12.8-6.4 16s-9.6 6.4-16 6.4h-25.6c-6.4 0-12.8-3.2-16-6.4s-6.4-9.6-6.4-16v-476.8c0-6.4 3.2-12.8 6.4-16s9.6-6.4 16-6.4v0 0zM659.2 86.4h25.6c6.4 0 9.6 3.2 16 6.4 3.2 3.2 6.4 9.6 6.4 16v476.8c0 6.4-3.2 12.8-6.4 16s-9.6 6.4-16 6.4h-25.6c-6.4 0-12.8-3.2-16-6.4s-6.4-9.6-6.4-16v-476.8c0-6.4 3.2-12.8 6.4-16s9.6-6.4 16-6.4v0 0z" />
<glyph unicode="&#xe912;" glyph-name="i-calendar" d="M834.048 807.328v36c0 30.24-9.12 53.792-27.36 70.656s-43.36 25.312-75.36 25.344c-32 0.032-56.896-8.416-74.656-25.344s-26.656-40.48-26.656-70.656v-36h-233.344v36c0 30.24-9.12 53.792-27.36 70.656s-43.36 25.312-75.36 25.344c-32 0.032-56.896-8.416-74.656-25.344s-26.656-40.48-26.656-70.656v-36h-172v-850.688h982.656v850.688h-169.248zM684.736 843.36c0 14.208 3.552 24.672 10.656 31.328s19.104 9.984 36 9.984c16.896 0 29.12-3.328 36.64-9.984s11.328-17.088 11.36-31.328v-164c0-15.104-3.776-25.984-11.36-32.672s-19.776-10.016-36.64-9.984c-16.864 0.032-28.864 3.36-36 9.984s-10.688 17.536-10.656 32.672v164zM247.392 843.36c0 14.208 3.552 24.672 10.656 31.328s19.104 9.984 36 9.984c16.896 0 29.12-3.328 36.64-9.984s11.328-17.088 11.36-31.328v-164c0-15.104-3.776-25.984-11.36-32.672s-19.776-10.016-36.64-9.984c-16.864 0.032-28.864 3.36-36 9.984s-10.688 17.536-10.656 32.672v164zM922.048 38.016h-818.688v442.656h818.688v-442.656z" />
<glyph unicode="&#xe913;" glyph-name="i-information" d="M512 960c-282.784 0-512-229.216-512-512s229.216-512 512-512c282.784 0 512 229.216 512 512v0c0 282.784-229.216 512-512 512v0zM453.984 812.384c12.832 12.16 30.176 19.648 49.28 19.648 0.384 0 0.736 0 1.12 0h-0.064c0.576 0.032 1.216 0.032 1.888 0.032 18.848 0 35.936-7.488 48.48-19.68v0c12.64-12.064 20.512-29.056 20.512-47.872 0-0.704 0-1.44-0.032-2.144v0.096c0-0.384 0-0.832 0-1.28 0-18.912-7.84-36.032-20.48-48.192l-0.032-0.032c-12.928-12.64-30.624-20.448-50.144-20.448s-37.216 7.808-50.144 20.448v0c-13.12 12.064-21.344 29.312-21.344 48.448 0 0.224 0 0.416 0 0.64v-0.032c-0.032 0.768-0.064 1.696-0.064 2.592 0 18.88 8.064 35.84 20.928 47.712l0.032 0.032zM640 161.696h-256v46.080c20.288 0 39.072 6.4 54.496 17.28l-0.288-0.192c7.040 14.72 11.136 32.032 11.136 50.272 0 5.152-0.32 10.208-0.96 15.168l0.064-0.576v197.536c0.544 4.128 0.832 8.864 0.832 13.696 0 16.992-3.776 33.12-10.528 47.584l0.288-0.704c-12.736 9.696-28.576 15.936-45.824 17.056h-0.256v42.656q45.216 5.12 92.576 14.944t89.184 20.896v-353.696c-0.512-4.192-0.8-9.056-0.8-13.952 0-17.984 3.904-35.040 10.944-50.368l-0.32 0.768c15.36-11.296 34.592-18.144 55.424-18.336h0.032v-46.080z" />
<glyph unicode="&#xe914;" glyph-name="i-information-2" d="M511.52 960c-283.040 0-512.48-229.44-512.48-512.48s229.44-512.48 512.48-512.48c283.040 0 512.48 229.44 512.48 512.48v0c0 283.040-229.44 512.48-512.48 512.48v0zM577.184 799.84c0.704 0.032 1.536 0.032 2.368 0.032 17.792 0 33.76-7.808 44.672-20.16l0.064-0.064c9.568-11.776 15.36-26.944 15.36-43.488 0-0.032 0-0.064 0-0.064v0c0-0.096 0-0.224 0-0.352 0-45.792-36.672-83.008-82.24-83.904h-0.096c-0.192 0-0.448 0-0.704 0-33.952 0-61.504 27.52-61.504 61.504 0 2.368 0.128 4.704 0.384 7.008l-0.032-0.288c0.544 45.056 37.184 81.344 82.304 81.344 0 0 0 0 0 0v0zM639.648 227.168c-71.744-78.144-160.16-124.928-192.192-125.248v0c-0.768-0.064-1.632-0.064-2.528-0.064-11.52 0-21.952 4.672-29.504 12.256v0c-8.288 10.688-13.312 24.32-13.312 39.104 0 1.696 0.064 3.36 0.192 4.992v-0.224c0.416 26.208 3.424 51.456 8.8 75.84l-0.448-2.496 51.232 221.312c1.76 7.36 3.136 16.096 3.808 25.056l0.032 0.576c-25.632-15.392-47.584-30.816-68.384-47.648l1.12 0.864-6.72-5.12-19.872 54.144 2.88 2.88c72.384 66.944 160.16 120.448 198.912 121.088 0.192 0 0.448 0 0.704 0 11.040 0 20.672-6.016 25.824-14.912l0.064-0.16c4.704-9.152 7.424-19.968 7.424-31.424 0-1.12-0.032-2.208-0.064-3.328v0.16c-0.128-25.344-2.688-50.016-7.456-73.888l0.416 2.464-57.024-228.064c-2.016-7.072-3.392-15.296-3.84-23.744v-0.288c-0.128-0.864-0.224-1.856-0.224-2.88s0.096-2.016 0.224-2.976v0.096c27.424 15.008 51.072 32.224 72.256 52.064l-0.192-0.192 6.080 5.44 21.792-46.752 2.88-4.48-2.88-4.48z" />
<glyph unicode="&#xe915;" glyph-name="i-calculator" d="M837.536 960h-651.52c-47.136 0-85.344-38.208-85.344-85.344v0-853.344c0-47.136 38.208-85.344 85.344-85.344v0h651.52c47.136 0 85.344 38.208 85.344 85.344v0 853.344c0 47.136-38.208 85.344-85.344 85.344v0zM191.136 828.16c0 23.552 19.104 42.656 42.656 42.656v0h549.536c0.928 0.064 2.048 0.128 3.136 0.128 22.24 0 40.544-17.024 42.496-38.784v-0.16s0-2.56 0-3.424v-159.136c0-23.552-19.104-42.656-42.656-42.656v0h-548.704c-1.056-0.096-2.304-0.16-3.552-0.16-22.4 0-40.8 17.28-42.528 39.264v0.16s0 2.56 0 3.424v158.72zM264.96 46.080h-34.144c-22.88 3.136-40.352 22.592-40.352 46.112 0 1.632 0.096 3.264 0.256 4.864l-0.032-0.192c-0.288 1.92-0.448 4.128-0.448 6.368 0 23.584 17.536 43.072 40.32 46.112l0.224 0.032h34.56c22.912-3.136 40.384-22.56 40.384-46.112 0-1.792-0.096-3.552-0.288-5.312l0.032 0.224c0.224-1.76 0.384-3.808 0.384-5.888 0-23.712-17.76-43.264-40.672-46.144l-0.224-0.032zM264.96 234.656h-34.144c-22.88 3.136-40.352 22.592-40.352 46.112 0 1.632 0.096 3.264 0.256 4.864l-0.032-0.192c-0.16 1.408-0.224 3.040-0.224 4.672 0 23.52 17.44 42.944 40.096 46.080l0.256 0.032h34.144c22.912-3.136 40.352-22.592 40.352-46.112 0-1.632-0.096-3.264-0.256-4.864l0.032 0.192c0.16-1.408 0.224-3.040 0.224-4.672 0-23.52-17.44-42.944-40.096-46.080l-0.256-0.032zM264.96 423.264h-34.144c-22.88 3.136-40.352 22.592-40.352 46.112 0 1.632 0.096 3.264 0.256 4.864l-0.032-0.192c-0.16 1.408-0.224 3.040-0.224 4.672 0 23.52 17.44 42.944 40.096 46.080l0.256 0.032h34.144c22.912-3.136 40.352-22.592 40.352-46.112 0-1.632-0.096-3.264-0.256-4.864l0.032 0.192c0.16-1.408 0.224-3.040 0.224-4.672 0-23.52-17.44-42.944-40.096-46.080l-0.256-0.032zM435.616 46.080h-32.416c-22.912 3.136-40.352 22.592-40.352 46.112 0 1.632 0.096 3.264 0.256 4.864l-0.032-0.192c-0.288 1.92-0.448 4.128-0.448 6.368 0 23.584 17.568 43.072 40.32 46.112l0.224 0.032h34.56c22.912-3.136 40.384-22.56 40.384-46.112 0-1.792-0.096-3.552-0.288-5.312l0.032 0.224c0.256-1.792 0.384-3.84 0.384-5.952 0-23.552-17.536-43.040-40.256-46.080l-0.224-0.032zM435.616 234.656h-32.416c-22.912 3.136-40.352 22.592-40.352 46.112 0 1.632 0.096 3.264 0.256 4.864l-0.032-0.192c-0.16 1.408-0.224 3.040-0.224 4.672 0 23.52 17.44 42.944 40.096 46.080l0.256 0.032h34.144c22.912-3.136 40.352-22.592 40.352-46.112 0-1.632-0.096-3.264-0.256-4.864l0.032 0.192c0.16-1.408 0.256-3.072 0.256-4.736 0-23.36-17.216-42.688-39.68-46.016l-0.256-0.032zM435.616 423.264h-32.416c-22.912 3.136-40.352 22.592-40.352 46.112 0 1.632 0.096 3.264 0.256 4.864l-0.032-0.192c-0.16 1.408-0.224 3.040-0.224 4.672 0 23.52 17.44 42.944 40.096 46.080l0.256 0.032h34.144c22.912-3.136 40.352-22.592 40.352-46.112 0-1.632-0.096-3.264-0.256-4.864l0.032 0.192c0.16-1.408 0.224-3.040 0.224-4.672 0-23.52-17.44-42.944-40.096-46.080l-0.256-0.032zM606.304 46.080h-34.144c-22.688 3.328-39.936 22.688-39.936 46.048 0 1.664 0.096 3.328 0.256 4.928l-0.032-0.192c-0.192 1.536-0.288 3.328-0.288 5.152 0 23.392 17.248 42.72 39.712 46.016l0.256 0.032h34.144c22.912-3.136 40.384-22.56 40.384-46.112 0-1.792-0.096-3.552-0.288-5.312l0.032 0.224c0.192-1.536 0.288-3.36 0.288-5.152 0-22.464-15.936-41.216-37.12-45.568l-0.288-0.064h-2.976zM606.304 234.656h-34.144c-22.688 3.328-39.936 22.688-39.936 46.048 0 1.664 0.096 3.328 0.256 4.928l-0.032-0.192c-0.16 1.408-0.256 3.072-0.256 4.736 0 23.36 17.216 42.688 39.68 46.016l0.256 0.032h34.144c22.88-3.136 40.352-22.592 40.352-46.112 0-1.632-0.096-3.264-0.256-4.864l0.032 0.192c0.192-1.536 0.288-3.36 0.288-5.152 0-22.464-15.936-41.216-37.12-45.568l-0.288-0.064h-2.976zM606.304 423.264h-34.144c-22.688 3.328-39.936 22.688-39.936 46.048 0 1.664 0.096 3.328 0.256 4.928l-0.032-0.192c-0.16 1.408-0.256 3.072-0.256 4.736 0 23.36 17.216 42.688 39.68 46.016l0.256 0.032h34.144c22.88-3.136 40.352-22.592 40.352-46.112 0-1.632-0.096-3.264-0.256-4.864l0.032 0.192c0.192-1.536 0.288-3.36 0.288-5.152 0-22.464-15.936-41.216-37.12-45.568l-0.288-0.064h-2.976zM826.464 81.92c-3.456-18.24-18.144-32.192-36.48-34.528l-0.224-0.032h-36.256c-18.528 2.368-33.216 16.32-36.64 34.304l-0.032 0.256v220.16c3.456 18.24 18.144 32.192 36.48 34.528l0.224 0.032h38.816c18.528-2.368 33.216-16.32 36.64-34.304l0.032-0.256v-221.44zM786.784 423.264h-34.144c-22.88 3.136-40.352 22.592-40.352 46.112 0 1.632 0.096 3.264 0.256 4.864l-0.032-0.192c-0.16 1.408-0.224 3.040-0.224 4.672 0 23.52 17.44 42.944 40.096 46.080l0.256 0.032h34.144c22.88-3.136 40.352-22.592 40.352-46.112 0-1.632-0.096-3.264-0.256-4.864l0.032 0.192c0.288-1.888 0.448-4.096 0.448-6.336 0-22.656-16.224-41.536-37.696-45.664l-0.288-0.032z" />
</font>
</defs>
</svg>
