<?xml version="1.0" encoding="utf-8"?>
<!-- Generator: Adobe Illustrator 19.1.0, SVG Export Plug-In . SVG Version: 6.00 Build 0)  -->
<svg version="1.1" id="form" xmlns="http://www.w3.org/2000/svg" xmlns:xlink="http://www.w3.org/1999/xlink" x="0px" y="0px"
	 viewBox="0 0 258 473" enable-background="new 0 0 258 473" xml:space="preserve">
<circle fill="#FAFAFA" stroke="#FFCC33" stroke-width="2" stroke-miterlimit="10" cx="33.06" cy="420.104" r="10.68799"/>
<circle fill="#FFFFFF" stroke="#B1B1B1" stroke-miterlimit="10" cx="11.204" cy="461.89001" r="10.68799"/>
<path opacity="0.5" fill="#FFFFFF" stroke="#E5E5E5" stroke-miterlimit="10" enable-background="new    " d="M178.435,139.52h19v-19
	h-19V139.52z"/>
<path fill="#FFFFFF" stroke="#FFCC33" stroke-miterlimit="10" d="M158.49001,179.353h19v-19h-19V179.353z"/>
<path fill="#FFFFFF" stroke="#B1B1B1" stroke-miterlimit="10" d="M138.57201,219.515h19v-19h-19V219.515z"/>
<circle opacity="0.5" fill="#FAFAFA" stroke="#D6D5D6" stroke-miterlimit="10" enable-background="new    " cx="57.602" cy="376.832" r="10.68799"/>
<circle fill="#FFFFFF" stroke="#B1B1B1" stroke-miterlimit="10" cx="80.519" cy="335.103" r="10.68799"/>
<circle fill="#FFCC33" cx="80.519" cy="335.103" r="5.5"/>
<circle fill="#FFFFFF" stroke="#FFCC33" stroke-width="2" stroke-miterlimit="10" cx="103.436" cy="293.103" r="10.68799"/>
<circle fill="#FFCC33" cx="103.436" cy="293.103" r="5.5"/>
<circle opacity="0.5" fill="#FFFFFF" stroke="#E5E5E5" stroke-miterlimit="10" enable-background="new    " cx="126.519" cy="250.937" r="10.688"/>
<circle opacity="0.5" fill="#E5E5E5" enable-background="new    " cx="126.519" cy="250.93701" r="5.50001"/>
<g>
	<path fill="#FFFFFF" stroke="#FECB37" stroke-width="2" stroke-miterlimit="10" d="M218.435,59.43633h19v-19h-19V59.43633z"/>
	<path fill="#FFCC33" d="M222.40578,50.89169c-0.17575-0.17629-0.17537-0.46498,0.00076-0.64098l1.13193-1.13206
		c0.17613-0.17629,0.46452-0.17629,0.64081-0.0003l1.83815,1.83415c0.17628,0.17599,0.46446,0.17568,0.64037-0.00061
		l5.03763-5.04946c0.17592-0.17629,0.46439-0.1772,0.64113-0.00154l1.12624,1.11826
		c0.17674,0.17568,0.17744,0.46344,0.00154,0.63974l-6.10898,6.12348c-0.1759,0.17629-0.52357,0.32065-0.77264,0.32065h-0.52773
		c-0.24908,0-0.59659-0.14465-0.77234-0.32095L222.40578,50.89169z"/>
</g>
<g>
	<path fill="#FFFFFF" stroke="#B1B1B1" stroke-miterlimit="10" d="M198.51801,99.52133h19v-19h-19V99.52133z"/>
	<path fill="#FFCC33" d="M202.48878,90.97668c-0.17575-0.17629-0.17538-0.46498,0.00075-0.64098l1.13193-1.13206
		c0.17613-0.17629,0.46452-0.17629,0.64082-0.0003l1.83813,1.83414c0.1763,0.17599,0.46446,0.17568,0.64037-0.00061l5.03763-5.04946
		c0.17592-0.17629,0.46439-0.1772,0.64114-0.00154l1.12622,1.11826c0.17676,0.17567,0.17744,0.46344,0.00154,0.63973
		l-6.10898,6.12348c-0.1759,0.17629-0.52357,0.32065-0.77264,0.32065h-0.52773c-0.24908,0-0.59659-0.14465-0.77234-0.32095
		L202.48878,90.97668z"/>
</g>
<g>
	<path fill="#FFFFFF" stroke="#E5E5E5" stroke-miterlimit="10" d="M238.463,19.52033h19.00002v-19H238.463V19.52033z"/>
	<path fill="#E5E5E5" d="M242.43378,10.97568c-0.17575-0.17629-0.17537-0.46498,0.00076-0.64098l1.13193-1.13206
		c0.17613-0.17629,0.46452-0.17629,0.64081-0.0003l1.83815,1.83415c0.17628,0.17599,0.46446,0.17568,0.64037-0.00061
		l5.03763-5.04946c0.17592-0.17629,0.46439-0.1772,0.64113-0.00154l1.12624,1.11826
		c0.17674,0.17568,0.17744,0.46344,0.00154,0.63973l-6.10898,6.12348c-0.1759,0.17629-0.52357,0.32065-0.77264,0.32065h-0.52773
		c-0.24908,0-0.59659-0.14465-0.77234-0.32094L242.43378,10.97568z"/>
</g>
</svg>
