<?xml version="1.0" encoding="UTF-8"?>
<svg width="32px" height="33px" viewBox="0 0 32 33" version="1.1" xmlns="http://www.w3.org/2000/svg" xmlns:xlink="http://www.w3.org/1999/xlink">
    <!-- Generator: Sketch 42 (36781) - http://www.bohemiancoding.com/sketch -->
    <title>warning_inactive</title>
    <desc>Created with Sketch.</desc>
    <defs></defs>
    <g id="Design" stroke="none" stroke-width="1" fill="none" fill-rule="evenodd">
        <g id="2.6-Dokumente-Hochladen-Opt-dokument-Erganzen" transform="translate(-56.000000, -799.000000)">
            <g id="warning_inactive" transform="translate(56.000000, 799.000000)">
                <path d="M23.8782465,1.27086189e-15 L23.8782465,33 L0,33 L0,6.93110176 L6.886745,0.0443567619 L6.886745,0 L23.8782465,0 L23.8782465,1.27086189e-15 Z M21.1510211,2.77158219 L9.61397043,2.77158219 L9.61397043,9.65832719 L2.72722543,9.65832719 L2.72722543,30.2269869 L21.1495903,30.2269869 L21.1495903,2.77158219 L21.1510211,2.77158219 Z" id="Shape-Copy" fill="#CCCCCC"></path>
                <g id="Group-10-Copy-4" transform="translate(16.000000, 17.000000)">
                    <g id="Group-39-Copy-3">
                        <circle id="Oval" fill="#949494" cx="8" cy="8" r="8"></circle>
                        <path d="M7.20691892,9.78407207 L8.7925045,9.78407207 L9.33333333,3.33333333 L6.66666667,3.33333333 L7.20691892,9.78407207 Z M7.99971171,10.5047928 C7.68720721,10.5047928 7.42294294,10.612997 7.20691892,10.8294054 C6.99089489,11.0458138 6.88269069,11.3100781 6.88230631,11.6221982 C6.88192192,11.9343183 6.99012613,12.1985826 7.20691892,12.414991 C7.42371171,12.6313994 7.68797598,12.7396036 7.99971171,12.7396036 C8.31144745,12.7396036 8.57571171,12.6313994 8.7925045,12.414991 C9.0092973,12.1985826 9.1175015,11.9343183 9.11711712,11.6221982 C9.11673273,11.3100781 9.00852853,11.0458138 8.7925045,10.8294054 C8.57648048,10.612997 8.31221622,10.5047928 7.99971171,10.5047928 L7.99971171,10.5047928 Z" id="Shape-Copy-2" fill="#FFFFFF"></path>
                    </g>
                </g>
            </g>
        </g>
    </g>
</svg>