<?xml version="1.0" encoding="UTF-8"?>
<svg width="32px" height="33px" viewBox="0 0 32 33" version="1.1" xmlns="http://www.w3.org/2000/svg" xmlns:xlink="http://www.w3.org/1999/xlink">
    <!-- Generator: Sketch 42 (36781) - http://www.bohemiancoding.com/sketch -->
    <title>document uploaded icon</title>
    <desc>Created with Sketch.</desc>
    <defs></defs>
    <g id="Design" stroke="none" stroke-width="1" fill="none" fill-rule="evenodd">
        <g id="2.1-Dokumente-Hochladen-Einzelabschluss-Liegt-Bere" transform="translate(-56.000000, -384.000000)">
            <g id="document-uploaded-icon" transform="translate(56.000000, 384.000000)">
                <path d="M23.8782465,1.27086189e-15 L23.8782465,33 L0,33 L0,6.93110176 L6.886745,0.0443567619 L6.886745,0 L23.8782465,0 L23.8782465,1.27086189e-15 Z M21.1510211,2.77158219 L9.61397043,2.77158219 L9.61397043,9.65832719 L2.72722543,9.65832719 L2.72722543,30.2269869 L21.1495903,30.2269869 L21.1495903,2.77158219 L21.1510211,2.77158219 Z" id="Shape-Copy" fill="#CCCCCC"></path>
                <g id="Group-22-Copy" transform="translate(16.000000, 17.000000)">
                    <circle id="Oval-4" fill="#FFFFFF" cx="8.57142857" cy="7.42857143" r="6.28571429"></circle>
                    <g id="uniE020-Copy-3" fill="#599500">
                        <path d="M8.01076809,7.65105454e-07 C6.89644403,7.65105454e-07 5.8543704,0.209804922 4.88454721,0.629413236 C3.91472402,1.04902155 3.0680971,1.62077261 2.34466643,2.34466643 C1.62123576,3.06856024 1.04948469,3.91518717 0.629413236,4.88454721 C0.209341778,5.85390726 -0.000462378729,6.89598089 7.65105453e-07,8.01076809 C7.65105453e-07,9.1107347 0.209804922,10.1456296 0.629413236,11.1154528 C1.04902155,12.085276 1.62077261,12.9319029 2.34466643,13.6553336 C3.06856024,14.3787642 3.91518717,14.9505153 4.88454721,15.3705868 C5.85390726,15.7906582 6.89598089,16.0004624 8.01076809,15.9999992 C9.1107347,15.9999992 10.1456296,15.7901951 11.1154528,15.3705868 C12.085276,14.9509785 12.9319029,14.3792274 13.6553336,13.6553336 C14.3787642,12.9314398 14.9505153,12.0848128 15.3705868,11.1154528 C15.7906582,10.1460927 16.0004624,9.11119784 15.9999992,8.01076809 C15.9999992,6.89644403 15.7901951,5.8543704 15.3705868,4.88454721 C14.9509785,3.91472402 14.3792274,3.0680971 13.6553336,2.34466643 C12.9314398,1.62123576 12.0848128,1.04948469 11.1154528,0.629413236 C10.1460927,0.209341778 9.11119784,-0.000462378729 8.01076809,7.65105453e-07 L8.01076809,7.65105454e-07 Z M13.1120659,5.88354846 L7.48903656,11.5281139 C7.41678613,11.6003644 7.31188405,11.6654361 7.17433033,11.7233291 C7.03677661,11.781222 6.91010677,11.8101685 6.79432081,11.8101685 L6.29482019,11.8101685 C6.17903423,11.8101685 6.05236439,11.781222 5.91481067,11.7233291 C5.77725695,11.6654361 5.67235488,11.6003644 5.60010444,11.5281139 L2.95115328,8.8576266 C2.86408224,8.78537616 2.82054672,8.69135796 2.82054672,8.575572 C2.82054672,8.45978604 2.86408224,8.35835754 2.95115328,8.2712865 L3.9932269,7.22921287 C4.06547734,7.15696244 4.15949554,7.12083722 4.2752815,7.12083722 C4.39106746,7.12083722 4.49249596,7.15696244 4.579567,7.22921287 L6.273284,8.92292988 C6.34553444,9.01000092 6.43955264,9.05353644 6.5553386,9.05353644 C6.67112455,9.05353644 6.77255305,9.01000092 6.85962409,8.92292988 L11.4836521,4.27667093 C11.5707232,4.18959989 11.6721517,4.14606437 11.7879376,4.14606437 C11.9037236,4.14606437 11.9977418,4.18959989 12.0699922,4.27667093 L13.1120659,5.29720837 C13.1991369,5.38427941 13.2426724,5.48570791 13.2426724,5.60149387 C13.2426724,5.71727983 13.1991369,5.81129803 13.1120659,5.88354846 L13.1120659,5.88354846 L13.1120659,5.88354846 Z" id="Shape"></path>
                    </g>
                </g>
            </g>
        </g>
    </g>
</svg>