<?xml version="1.0" encoding="utf-8"?>
<!-- Generator: Adobe Illustrator 19.1.0, SVG Export Plug-In . SVG Version: 6.00 Build 0)  -->
<svg version="1.1" id="Ebene_1" xmlns="http://www.w3.org/2000/svg" xmlns:xlink="http://www.w3.org/1999/xlink" x="0px" y="0px"
	 viewBox="0 0 236 50" style="enable-background:new 0 0 236 50;" xml:space="preserve">
<style type="text/css">
	.st0{fill:#1D1D1B;}
	.st1{fill:url(#Überlappung_Verlauf_rechts_1_);}
	.st2{fill:url(#SVGID_1_);}
	.st3{fill:url(#SVGID_2_);}
	.st4{fill:url(#SVGID_3_);}
</style>
<g>
	<path class="st0" d="M7.7,26.3L7.7,26.3c-4,0-7.3-3.1-7.3-7.6c0-4.3,3.3-7.8,7.5-7.8c2.1,0,3.9,0.8,5.1,2.2l-2.1,2.2
		C10,14.4,9,14,7.8,14c-2.3,0-3.9,2-3.9,4.6c0,2.6,1.6,4.6,4,4.6c1.4,0,2.4-0.5,3.3-1.4l2,2.1C11.8,25.5,10,26.3,7.7,26.3L7.7,26.3z
		 M22,23.3L22,23.3c2.6,0,4.2-2.1,4.2-4.7c0-2.6-1.6-4.7-4.2-4.7c-2.6,0-4.2,2.1-4.2,4.7C17.8,21.2,19.5,23.3,22,23.3L22,23.3z
		 M22,26.3L22,26.3c-4.5,0-7.7-3.3-7.7-7.6c0-4.3,3.3-7.8,7.8-7.8c4.5,0,7.7,3.3,7.7,7.6C29.8,22.8,26.4,26.3,22,26.3L22,26.3z
		 M42.5,26l2.5-8.2c0.4-1.4,0.8-3,0.8-3h0.1c0,0,0,1.6,0.2,3.2l0.7,8h3.3l-1.4-14.9h-4.3l-2.3,7.4c-0.4,1.2-0.8,2.7-0.8,2.7
		s-0.4-1.5-0.8-2.8l-2.3-7.4h-4.4L32.2,26h3.1l0.7-8c0.1-1.6,0.2-3.2,0.2-3.2h0.1c0,0,0.4,1.6,0.8,3.1l2.5,8.1H42.5L42.5,26z
		 M63.7,26l2.5-8.2c0.4-1.4,0.8-3,0.8-3H67c0,0,0,1.6,0.2,3.2l0.7,8h3.3l-1.5-14.9h-4.3l-2.3,7.4c-0.4,1.2-0.8,2.7-0.8,2.7
		s-0.4-1.5-0.8-2.8l-2.3-7.4h-4.4L53.4,26h3.1l0.7-8c0.1-1.6,0.2-3.2,0.2-3.2h0.1c0,0,0.4,1.6,0.8,3.1l2.5,8.1H63.7L63.7,26z
		 M75.1,26h9.7v-2.8h-6.4v-3.3h5.5v-2.8h-5.5V14h6.4v-2.8h-9.6V26L75.1,26z M96.2,15.9L96.2,15.9c0-1.4-1-2-2.7-2h-1.3v4h1.3
		C95.3,17.9,96.2,17.3,96.2,15.9L96.2,15.9z M100.2,26h-3.8l-3.2-5.4h-1V26h-3.2V11.1h4.5c4.5,0,6.2,1.8,6.2,4.8
		c0,1.9-1.1,3.4-3,4.1L100.2,26L100.2,26z M102.3,26h10.4v-2.8h-6.3l6.2-9.6v-2.5h-10.1V14h6l-6.2,9.6V26L102.3,26z M119.5,19.9v3.3
		h2.4c1.6,0,2.4-0.6,2.4-1.7c0-1.2-0.9-1.6-2.4-1.6H119.5L119.5,19.9z M119.5,13.9v3.2h2c1,0,1.9-0.5,1.9-1.7c0-1.2-1-1.6-2.1-1.6
		H119.5L119.5,13.9z M116.2,26V11.1h5.2c2.6,0,5.4,0.6,5.4,3.8c0,1.6-0.9,2.8-2.5,3.3v0c2,0.3,3.2,1.5,3.2,3.5c0,3.1-3,4.3-5.6,4.3
		H116.2L116.2,26z M132.1,26h-3.3l5.3-14.9h4l5.3,14.9H140l-1-3h-5.8L132.1,26L132.1,26z M138,20.2l-1.3-4c-0.4-1.1-0.6-2.1-0.6-2.1
		s-0.3,1-0.6,2.1l-1.3,3.9H138L138,20.2z M145.6,26h3v-7.1c0-1.3-0.1-2.7-0.1-2.7s0.7,1.2,1.5,2.4l5,7.4h2.9V11.1h-3v6.7
		c0,1.3,0.1,2.7,0.1,2.7s-0.7-1.2-1.5-2.4l-4.8-7.1h-3.1V26L145.6,26z M161.9,11.1V26h3.2v-7l4.8,7h4l-5.5-8l4.9-6.9h-3.7l-4.5,6.7
		v-6.7H161.9L161.9,11.1z"/>
	<g id="Bildmarke_2_">
		
			<radialGradient id="Überlappung_Verlauf_rechts_1_" cx="226.4459" cy="39.9306" r="40.7433" gradientTransform="matrix(0.9805 0 0 0.9805 4.4588 2.7059)" gradientUnits="userSpaceOnUse">
			<stop  offset="0" style="stop-color:#FFDF43"/>
			<stop  offset="5.476785e-03" style="stop-color:#FFDF42"/>
			<stop  offset="0.1916" style="stop-color:#FECE1E"/>
			<stop  offset="0.343" style="stop-color:#FDC308"/>
			<stop  offset="0.44" style="stop-color:#FCBF00"/>
			<stop  offset="0.6141" style="stop-color:#FBBC00"/>
			<stop  offset="0.7644" style="stop-color:#F6B100"/>
			<stop  offset="0.9" style="stop-color:#EEA100"/>
			<stop  offset="1" style="stop-color:#E18800"/>
		</radialGradient>
		<path id="Überlappung_Verlauf_rechts_2_" class="st1" d="M212.9,3.6c1-0.7,2.2-1.1,3.2-1.2c0.7-0.1,3.1,0,5.9,0c0,0,0,0,0,0
			L222,2.2c0,0,0,0-0.2,0h-5.2c-0.7,0-3.5,0-6.8,3.9c0,0.1,0.1,0.1,0.1,0.2C210.8,5.3,211.8,4.3,212.9,3.6z"/>
		
			<radialGradient id="SVGID_1_" cx="215.5559" cy="-0.5782" r="40.6669" gradientTransform="matrix(0.9805 0 0 0.9805 4.4588 2.7059)" gradientUnits="userSpaceOnUse">
			<stop  offset="0" style="stop-color:#FFDF43"/>
			<stop  offset="5.476785e-03" style="stop-color:#FFDF42"/>
			<stop  offset="0.1916" style="stop-color:#FECE1E"/>
			<stop  offset="0.343" style="stop-color:#FDC308"/>
			<stop  offset="0.44" style="stop-color:#FCBF00"/>
			<stop  offset="0.6141" style="stop-color:#FBBC00"/>
			<stop  offset="0.7644" style="stop-color:#F6B100"/>
			<stop  offset="0.9" style="stop-color:#EEA100"/>
			<stop  offset="1" style="stop-color:#E18800"/>
		</radialGradient>
		<path class="st2" d="M218,2.2h-20.3c0,0,0,0,0,0l-10.2,17.6l-3.2,5.5l-0.4,0.6l0,0.1c0,0,0,0,0,0l9.8,16.9c0-0.1-0.1-0.2-0.1-0.2
			c-0.2-0.4-0.4-0.7-0.4-0.9c-0.4-0.9-0.6-2.2-0.6-3.4c0.2-3.2,1.9-6.4,2.8-7.9c2-3.5,6-10.3,6-10.3s3.9-6.8,6-10.3
			c0.9-1.5,2.8-4.6,5.5-6.4c1-0.7,2.3-1.1,3.2-1.2C216.4,2.2,217.1,2.2,218,2.2C218,2.2,218,2.2,218,2.2z"/>
		
			<radialGradient id="SVGID_2_" cx="186.1951" cy="29.195" r="40.5607" gradientTransform="matrix(0.9805 0 0 0.9805 4.4588 2.7059)" gradientUnits="userSpaceOnUse">
			<stop  offset="0" style="stop-color:#FFDF43"/>
			<stop  offset="5.476785e-03" style="stop-color:#FFDF42"/>
			<stop  offset="0.1916" style="stop-color:#FECE1E"/>
			<stop  offset="0.343" style="stop-color:#FDC308"/>
			<stop  offset="0.44" style="stop-color:#FCBF00"/>
			<stop  offset="0.6141" style="stop-color:#FBBC00"/>
			<stop  offset="0.7644" style="stop-color:#F6B100"/>
			<stop  offset="0.9" style="stop-color:#EEA100"/>
			<stop  offset="1" style="stop-color:#E18800"/>
		</radialGradient>
		<path class="st3" d="M233.7,29.5c-0.5,0.8-0.8,1.3-1,1.6c-0.6,0.8-1.6,1.6-2.7,2.2c-2.9,1.5-6.5,1.6-8.3,1.6c-4.1,0-11.9,0-11.9,0
			s-7.9,0-11.9,0c-1.7,0-5.4-0.1-8.3-1.6c-1.1-0.6-2.1-1.4-2.7-2.2c-0.2-0.3-0.5-0.8-1-1.6c0-0.1-0.1-0.1-0.1-0.1l1,1.8l9.1,15.8
			c0,0,0,0,0,0h13.8h13.8c0,0,0,0,0,0L233.7,29.5C233.8,29.4,233.8,29.4,233.7,29.5z"/>
		
			<radialGradient id="SVGID_3_" cx="226.4442" cy="39.7569" r="40.7393" gradientTransform="matrix(0.9805 0 0 0.9805 4.4588 2.7059)" gradientUnits="userSpaceOnUse">
			<stop  offset="0" style="stop-color:#FFDF43"/>
			<stop  offset="5.476785e-03" style="stop-color:#FFDF42"/>
			<stop  offset="0.1916" style="stop-color:#FECE1E"/>
			<stop  offset="0.343" style="stop-color:#FDC308"/>
			<stop  offset="0.44" style="stop-color:#FCBF00"/>
			<stop  offset="0.6141" style="stop-color:#FBBC00"/>
			<stop  offset="0.7644" style="stop-color:#F6B100"/>
			<stop  offset="0.9" style="stop-color:#EEA100"/>
			<stop  offset="1" style="stop-color:#E18800"/>
		</radialGradient>
		<path class="st4" d="M235.7,26L222,2.2c0,0,0,0,0,0c-1.4,0-3.9,0-3.9,0s0,0-0.1,0c-0.9,0-1.6,0-1.9,0.1c-1,0.1-2.2,0.5-3.2,1.2
			c-1.1,0.7-2.1,1.7-3,2.7c1.2,1.4,2,2.8,2.5,3.7c2,3.5,6,10.3,6,10.3s3.9,6.8,6,10.3c0.9,1.5,2.6,4.7,2.8,7.9
			c0.1,1.2-0.2,2.5-0.6,3.4c-0.1,0.3-0.5,0.9-0.9,1.7c0,0.1,0,0.1,0,0.1L235.7,26C235.7,26,235.7,26,235.7,26z"/>
	</g>
	<path class="st0" d="M29.6,38H33c2.8,0,4.8,1.9,4.8,4.5v0c0,2.5-2,4.5-4.8,4.5h-3.4V38z M31.2,39.5v6.1H33c1.9,0,3.1-1.3,3.1-3v0
		c0-1.8-1.2-3.1-3.1-3.1H31.2z M39.2,37.7h1.7v1.5h-1.7V37.7z M39.3,40.2h1.6V47h-1.6V40.2z M42.5,43.6L42.5,43.6
		c0-2,1.4-3.6,3.3-3.6c2.2,0,3.3,1.7,3.3,3.7c0,0.1,0,0.3,0,0.4h-5c0.2,1.1,1,1.7,2,1.7c0.8,0,1.3-0.3,1.8-0.8l0.9,0.8
		c-0.6,0.8-1.5,1.3-2.8,1.3C44,47.2,42.5,45.7,42.5,43.6z M47.5,43.1c-0.1-1-0.7-1.8-1.7-1.8c-1,0-1.6,0.7-1.8,1.8H47.5z M54.6,38h4
		c1,0,1.8,0.3,2.4,0.8c0.4,0.4,0.6,0.9,0.6,1.5v0c0,1.1-0.6,1.7-1.3,2c1.1,0.4,1.8,1,1.8,2.2v0c0,1.6-1.3,2.5-3.3,2.5h-4.2V38z
		 M60,40.6c0-0.7-0.6-1.1-1.6-1.1h-2.3v2.4h2.2C59.4,41.8,60,41.4,60,40.6L60,40.6z M58.7,43.1h-2.5v2.5h2.6c1.1,0,1.7-0.4,1.7-1.2
		v0C60.5,43.6,59.9,43.1,58.7,43.1z M63.1,45.1L63.1,45.1c0-1.5,1.1-2.2,2.8-2.2c0.8,0,1.3,0.1,1.8,0.3V43c0-1-0.6-1.5-1.7-1.5
		c-0.8,0-1.3,0.2-1.9,0.4l-0.4-1.2c0.7-0.3,1.5-0.6,2.6-0.6c1,0,1.8,0.3,2.2,0.8c0.5,0.5,0.7,1.2,0.7,2.1v4h-1.5v-0.8
		c-0.5,0.6-1.2,1-2.2,1C64.3,47.2,63.1,46.4,63.1,45.1z M67.8,44.6v-0.5c-0.4-0.2-0.9-0.3-1.5-0.3c-1,0-1.6,0.4-1.6,1.1v0
		c0,0.7,0.6,1,1.3,1C67,46,67.8,45.4,67.8,44.6z M71.2,40.2h1.6v1c0.4-0.6,1.1-1.2,2.1-1.2c1.5,0,2.4,1,2.4,2.6V47h-1.6v-3.9
		c0-1.1-0.5-1.7-1.5-1.7c-0.9,0-1.5,0.6-1.5,1.7V47h-1.6V40.2z M79.2,37.6h1.6v5.6l2.8-3h1.9L82.7,43l2.8,4h-1.8l-2-2.9l-1,1V47
		h-1.6V37.6z M89.8,45.1L89.8,45.1c0-1.5,1.1-2.2,2.8-2.2c0.8,0,1.3,0.1,1.8,0.3V43c0-1-0.6-1.5-1.7-1.5c-0.8,0-1.3,0.2-1.9,0.4
		l-0.4-1.2c0.7-0.3,1.5-0.6,2.6-0.6c1,0,1.8,0.3,2.2,0.8c0.5,0.5,0.7,1.2,0.7,2.1v4h-1.5v-0.8c-0.5,0.6-1.2,1-2.2,1
		C90.9,47.2,89.8,46.4,89.8,45.1z M94.5,44.6v-0.5c-0.4-0.2-0.9-0.3-1.5-0.3c-1,0-1.6,0.4-1.6,1.1v0c0,0.7,0.6,1,1.3,1
		C93.7,46,94.5,45.4,94.5,44.6z M97.8,40.2h1.6v1c0.4-0.6,1.1-1.2,2.1-1.2c1.5,0,2.4,1,2.4,2.6V47h-1.6v-3.9c0-1.1-0.5-1.7-1.5-1.7
		c-0.9,0-1.5,0.6-1.5,1.7V47h-1.6V40.2z M109.9,38h1.6v9h-1.6V38z M113.7,37.6h1.6v3.6c0.4-0.6,1.1-1.2,2.1-1.2c1.5,0,2.4,1,2.4,2.6
		V47h-1.6v-3.9c0-1.1-0.5-1.7-1.5-1.7c-0.9,0-1.5,0.6-1.5,1.7V47h-1.6V37.6z M121.7,40.2h1.6v1.5c0.4-1,1.2-1.7,2.4-1.7v1.6h-0.1
		c-1.4,0-2.3,0.9-2.3,2.7V47h-1.6V40.2z M126.3,43.6L126.3,43.6c0-2,1.4-3.6,3.3-3.6c2.2,0,3.3,1.7,3.3,3.7c0,0.1,0,0.3,0,0.4h-5
		c0.2,1.1,1,1.7,2,1.7c0.8,0,1.3-0.3,1.8-0.8l0.9,0.8c-0.6,0.8-1.5,1.3-2.8,1.3C127.8,47.2,126.3,45.7,126.3,43.6z M131.3,43.1
		c-0.1-1-0.7-1.8-1.7-1.8c-1,0-1.6,0.7-1.8,1.8H131.3z M134.4,40.2h1.6v1.5c0.4-1,1.2-1.7,2.4-1.7v1.6h-0.1c-1.4,0-2.3,0.9-2.3,2.7
		V47h-1.6V40.2z M142.9,45.7l1-1.1c0.9,0.7,1.7,1.2,2.8,1.2c1,0,1.6-0.5,1.6-1.1v0c0-0.6-0.4-1-2-1.4c-1.9-0.5-3-1-3-2.7v0
		c0-1.5,1.3-2.6,3.1-2.6c1.3,0,2.4,0.4,3.3,1.1l-0.8,1.2c-0.8-0.6-1.6-0.9-2.4-0.9c-0.9,0-1.5,0.5-1.5,1.1v0c0,0.7,0.4,1,2.1,1.4
		c1.9,0.5,2.9,1.1,2.9,2.6v0c0,1.7-1.3,2.7-3.2,2.7C145.3,47.1,144,46.7,142.9,45.7z M150.9,43.6L150.9,43.6c0-2,1.4-3.6,3.3-3.6
		c2.2,0,3.3,1.7,3.3,3.7c0,0.1,0,0.3,0,0.4h-5c0.2,1.1,1,1.7,2,1.7c0.8,0,1.3-0.3,1.8-0.8l0.9,0.8c-0.6,0.8-1.5,1.3-2.8,1.3
		C152.4,47.2,150.9,45.7,150.9,43.6z M156,43.1c-0.1-1-0.7-1.8-1.7-1.8c-1,0-1.6,0.7-1.8,1.8H156z M159,37.7h1.7v1.5H159V37.7z
		 M159.1,40.2h1.6V47h-1.6V40.2z M162.9,45.1v-3.6h-0.9v-1.3h0.9v-1.9h1.6v1.9h1.8v1.3h-1.8v3.3c0,0.6,0.3,0.8,0.8,0.8
		c0.3,0,0.7-0.1,1-0.2v1.3c-0.4,0.2-0.8,0.3-1.4,0.3C163.7,47.1,162.9,46.6,162.9,45.1z M167.3,43.6L167.3,43.6c0-2,1.4-3.6,3.3-3.6
		c2.2,0,3.3,1.7,3.3,3.7c0,0.1,0,0.3,0,0.4h-5c0.2,1.1,1,1.7,2,1.7c0.8,0,1.3-0.3,1.8-0.8l0.9,0.8c-0.6,0.8-1.5,1.3-2.8,1.3
		C168.8,47.2,167.3,45.7,167.3,43.6z M172.3,43.1c-0.1-1-0.7-1.8-1.7-1.8c-1,0-1.6,0.7-1.8,1.8H172.3z"/>
</g>
</svg>
