<?xml version="1.0" encoding="utf-8"?>
<!-- Generator: Adobe Illustrator 19.1.0, SVG Export Plug-In . SVG Version: 6.00 Build 0)  -->
<svg version="1.1" id="Ebene_1" xmlns="http://www.w3.org/2000/svg" xmlns:xlink="http://www.w3.org/1999/xlink" x="0px" y="0px"
	 viewBox="0 0 154 22" style="enable-background:new 0 0 154 22;" xml:space="preserve">
<style type="text/css">
	.st0{fill:#1D1D1B;}
	.st1{fill:url(#Überlappung_Verlauf_rechts_1_);}
	.st2{fill:url(#SVGID_1_);}
	.st3{fill:url(#SVGID_2_);}
	.st4{fill:url(#SVGID_3_);}
</style>
<g>
	<g id="Commerzbank_1_">
		<g id="Wortmarke_2_">
			<path class="st0" d="M7.1,17.3c1.7,0,3-0.6,4-1.7l-1.5-1.5c-0.6,0.6-1.4,1-2.4,1c-1.7,0-2.9-1.4-2.9-3.4c0-1.9,1.2-3.3,2.8-3.3
				c0.9,0,1.6,0.3,2.2,0.9l1.5-1.6c-0.9-1-2.2-1.6-3.7-1.6c-3,0-5.5,2.5-5.5,5.6C1.8,15.1,4.2,17.3,7.1,17.3L7.1,17.3L7.1,17.3z"/>
			<path class="st0" d="M17.5,15.1c-1.9,0-3.1-1.5-3.1-3.4c0-1.8,1.2-3.4,3.1-3.4c1.9,0,3.1,1.5,3.1,3.4
				C20.5,13.6,19.4,15.1,17.5,15.1L17.5,15.1L17.5,15.1z M17.4,17.3c3.2,0,5.6-2.5,5.6-5.6c0-3.2-2.3-5.5-5.6-5.5
				c-3.2,0-5.6,2.5-5.6,5.6C11.9,14.9,14.2,17.3,17.4,17.3L17.4,17.3L17.4,17.3z"/>
			<path class="st0" d="M32.1,17.1l1.8-5.9c0.3-1,0.6-2.2,0.6-2.2h0c0,0,0,1.2,0.1,2.3l0.5,5.8h2.4L36.4,6.3h-3.1l-1.6,5.4
				c-0.3,0.9-0.5,2-0.5,2s-0.3-1.1-0.6-2l-1.7-5.3h-3.2l-1.1,10.8h2.2l0.5-5.8c0.1-1.1,0.1-2.3,0.1-2.3h0c0,0,0.3,1.2,0.6,2.2
				l1.8,5.9H32.1L32.1,17.1z"/>
			<path class="st0" d="M47.1,17.1l1.8-5.9c0.3-1,0.6-2.2,0.6-2.2h0c0,0,0,1.2,0.1,2.3l0.5,5.8h2.4L51.5,6.3h-3.1l-1.6,5.4
				c-0.3,0.9-0.5,2-0.5,2s-0.3-1.1-0.6-2L44,6.3h-3.2l-1.1,10.8H42l0.5-5.8c0.1-1.1,0.1-2.3,0.1-2.3h0c0,0,0.3,1.2,0.6,2.2l1.8,5.9
				H47.1L47.1,17.1z"/>
			<polygon class="st0" points="55.2,17.1 62.2,17.1 62.2,15.1 57.5,15.1 57.5,12.7 61.5,12.7 61.5,10.7 57.5,10.7 57.5,8.4 
				62.1,8.4 62.1,6.3 55.2,6.3 55.2,17.1 			"/>
			<path class="st0" d="M70.3,9.8c0,1-0.7,1.4-2,1.4h-1V8.3h1C69.5,8.3,70.3,8.7,70.3,9.8L70.3,9.8L70.3,9.8z M73.2,17.1l-2.7-4.4
				c1.4-0.5,2.2-1.6,2.2-3c0-2.2-1.2-3.5-4.5-3.5H65v10.8h2.3v-3.9h0.7l2.3,3.9H73.2L73.2,17.1z"/>
			<polygon class="st0" points="74.5,17.1 82.1,17.1 82.1,15.1 77.5,15.1 82,8.1 82,6.3 74.6,6.3 74.6,8.4 79,8.4 74.5,15.3 
				74.5,17.1 			"/>
			<path class="st0" d="M86.9,12.7h1.7c1.1,0,1.7,0.3,1.7,1.2c0,0.8-0.5,1.3-1.7,1.3h-1.7V12.7L86.9,12.7z M86.9,8.3h1.4
				c0.7,0,1.5,0.2,1.5,1.1c0,0.9-0.6,1.2-1.4,1.2h-1.5V8.3L86.9,8.3z M84.5,17.1h4.1c1.9,0,4.1-0.9,4.1-3.1c0-1.4-0.9-2.3-2.3-2.5v0
				c1.1-0.3,1.8-1.2,1.8-2.4c0-2.3-2.1-2.8-3.9-2.8h-3.7V17.1L84.5,17.1z"/>
			<path class="st0" d="M95.9,17.1l0.7-2.2h4.2l0.7,2.2h2.5l-3.8-10.8h-2.9l-3.8,10.8H95.9L95.9,17.1z M100.1,12.9h-2.8l1-2.9
				c0.3-0.8,0.5-1.5,0.5-1.5s0.2,0.7,0.5,1.5L100.1,12.9L100.1,12.9z"/>
			<path class="st0" d="M105.6,17.1h2.2V12c0-1-0.1-2-0.1-2s0.5,0.9,1.1,1.7l3.7,5.4h2.1V6.3h-2.2v4.9c0,1,0.1,2,0.1,2
				s-0.5-0.9-1.1-1.7l-3.5-5.1h-2.2V17.1L105.6,17.1z"/>
			<polygon class="st0" points="117.1,6.3 117.1,17.1 119.4,17.1 119.4,12.1 122.9,17.1 125.8,17.1 121.8,11.3 125.4,6.3 122.7,6.3 
				119.4,11.2 119.4,6.3 117.1,6.3 			"/>
		</g>
	</g>
	<g id="Bildmarke_2_">
		
			<radialGradient id="Überlappung_Verlauf_rechts_1_" cx="240.6738" cy="24.7338" r="40.6327" gradientTransform="matrix(0.4386 0 0 0.4386 44.2475 7.5526)" gradientUnits="userSpaceOnUse">
			<stop  offset="0" style="stop-color:#FFDF43"/>
			<stop  offset="5.476785e-03" style="stop-color:#FFDF42"/>
			<stop  offset="0.1916" style="stop-color:#FECE1E"/>
			<stop  offset="0.343" style="stop-color:#FDC308"/>
			<stop  offset="0.44" style="stop-color:#FCBF00"/>
			<stop  offset="0.6141" style="stop-color:#FBBC00"/>
			<stop  offset="0.7644" style="stop-color:#F6B100"/>
			<stop  offset="0.9" style="stop-color:#EEA100"/>
			<stop  offset="1" style="stop-color:#E18800"/>
		</radialGradient>
		<path id="Überlappung_Verlauf_rechts_2_" class="st1" d="M143.7,1.3c0.5-0.3,1-0.5,1.4-0.5c0.3,0,1.4,0,2.6,0c0,0,0,0,0,0l0-0.1
			c0,0,0,0-0.1,0h-2.3c-0.3,0-1.6,0-3,1.8c0,0,0,0,0.1,0.1C142.8,2.1,143.2,1.6,143.7,1.3z"/>
		
			<radialGradient id="SVGID_1_" cx="229.8143" cy="-15.6651" r="40.5524" gradientTransform="matrix(0.4386 0 0 0.4386 44.2475 7.5526)" gradientUnits="userSpaceOnUse">
			<stop  offset="0" style="stop-color:#FFDF43"/>
			<stop  offset="5.476785e-03" style="stop-color:#FFDF42"/>
			<stop  offset="0.1916" style="stop-color:#FECE1E"/>
			<stop  offset="0.343" style="stop-color:#FDC308"/>
			<stop  offset="0.44" style="stop-color:#FCBF00"/>
			<stop  offset="0.6141" style="stop-color:#FBBC00"/>
			<stop  offset="0.7644" style="stop-color:#F6B100"/>
			<stop  offset="0.9" style="stop-color:#EEA100"/>
			<stop  offset="1" style="stop-color:#E18800"/>
		</radialGradient>
		<path class="st2" d="M146,0.7h-9c0,0,0,0,0,0l-4.5,7.8L131,11l-0.2,0.3l0,0c0,0,0,0,0,0l4.4,7.6c0-0.1,0-0.1,0-0.1
			c-0.1-0.2-0.2-0.3-0.2-0.4c-0.2-0.4-0.3-1-0.3-1.5c0.1-1.4,0.8-2.9,1.2-3.5c0.9-1.6,2.7-4.6,2.7-4.6s1.8-3,2.7-4.6
			c0.4-0.7,1.2-2,2.5-2.8c0.5-0.3,1-0.5,1.4-0.5C145.3,0.7,145.6,0.7,146,0.7C146,0.7,146,0.7,146,0.7z"/>
		
			<radialGradient id="SVGID_2_" cx="200.5364" cy="14.0246" r="40.4469" gradientTransform="matrix(0.4386 0 0 0.4386 44.2475 7.5526)" gradientUnits="userSpaceOnUse">
			<stop  offset="0" style="stop-color:#FFDF43"/>
			<stop  offset="5.476785e-03" style="stop-color:#FFDF42"/>
			<stop  offset="0.1916" style="stop-color:#FECE1E"/>
			<stop  offset="0.343" style="stop-color:#FDC308"/>
			<stop  offset="0.44" style="stop-color:#FCBF00"/>
			<stop  offset="0.6141" style="stop-color:#FBBC00"/>
			<stop  offset="0.7644" style="stop-color:#F6B100"/>
			<stop  offset="0.9" style="stop-color:#EEA100"/>
			<stop  offset="1" style="stop-color:#E18800"/>
		</radialGradient>
		<path class="st3" d="M153,12.9c-0.2,0.3-0.4,0.6-0.4,0.7c-0.3,0.4-0.7,0.7-1.2,1c-1.3,0.7-2.9,0.7-3.7,0.7c-1.8,0-5.3,0-5.3,0
			s-3.5,0-5.3,0c-0.8,0-2.4,0-3.7-0.7c-0.5-0.3-0.9-0.6-1.2-1c-0.1-0.1-0.2-0.4-0.4-0.7c0,0,0,0,0,0l0.5,0.8l4.1,7.1c0,0,0,0,0,0
			h6.1h6.1c0,0,0,0,0,0L153,12.9C153,12.8,153,12.9,153,12.9z"/>
		
			<radialGradient id="SVGID_3_" cx="240.6723" cy="24.556" r="40.6245" gradientTransform="matrix(0.4386 0 0 0.4386 44.2475 7.5526)" gradientUnits="userSpaceOnUse">
			<stop  offset="0" style="stop-color:#FFDF43"/>
			<stop  offset="5.476785e-03" style="stop-color:#FFDF42"/>
			<stop  offset="0.1916" style="stop-color:#FECE1E"/>
			<stop  offset="0.343" style="stop-color:#FDC308"/>
			<stop  offset="0.44" style="stop-color:#FCBF00"/>
			<stop  offset="0.6141" style="stop-color:#FBBC00"/>
			<stop  offset="0.7644" style="stop-color:#F6B100"/>
			<stop  offset="0.9" style="stop-color:#EEA100"/>
			<stop  offset="1" style="stop-color:#E18800"/>
		</radialGradient>
		<path class="st4" d="M153.9,11.3l-6.1-10.6c0,0,0,0,0,0c-0.6,0-1.7,0-1.7,0s0,0,0,0c-0.4,0-0.7,0-0.8,0c-0.4,0-1,0.2-1.4,0.5
			c-0.5,0.3-1,0.8-1.3,1.2c0.5,0.6,0.9,1.2,1.1,1.6c0.9,1.6,2.7,4.6,2.7,4.6s1.8,3,2.7,4.6c0.4,0.7,1.2,2.1,1.2,3.5
			c0,0.5-0.1,1.1-0.3,1.5c-0.1,0.1-0.2,0.4-0.4,0.7c0,0,0,0,0,0L153.9,11.3C153.9,11.3,153.9,11.3,153.9,11.3z"/>
	</g>
</g>
</svg>
