<?xml version="1.0" encoding="UTF-8"?>
<svg width="700px" height="140px" viewBox="0 0 700 140" version="1.1" xmlns="http://www.w3.org/2000/svg" xmlns:xlink="http://www.w3.org/1999/xlink">
    <!-- Generator: Sketch 41.2 (35397) - http://www.bohemiancoding.com/sketch -->
    <title>Icons</title>
    <desc>Created with Sketch.</desc>
    <defs>
        <polygon id="path-1" points="0.881816826 29.819928 30.7047659 29.819928 30.7047659 0.0114930972 0.881816826 0.0114930972"></polygon>
        <polygon id="path-3" points="0 70.4918033 49.3442623 70.4918033 49.3442623 0 0 0"></polygon>
    </defs>
    <g id="Vermassung" stroke="none" stroke-width="1" fill="none" fill-rule="evenodd">
        <g id="Icons">
            <g id="Handy" transform="translate(190.000000, 35.000000)">
                <path d="M5.48995697,69.9879738 C2.78343572,69.9879738 0.591275979,67.7575502 0.591275979,65.0327159 L0.591275979,58.1949857 L39.7807239,58.1949857 L39.7807239,65.0327159 C39.7807239,67.7575502 37.5885642,69.9879738 34.8820429,69.9879738 L5.48995697,69.9879738 Z M34.8820429,0.597015313 C37.5885642,0.597015313 39.7807239,2.81504774 39.7807239,5.55475147 L39.7807239,12.3900035 L0.591275979,12.3900035 L0.591275979,5.55475147 C0.591275979,2.81504774 2.78343572,0.597015313 5.48995697,0.597015313 L34.8820429,0.597015313 Z M0.591275979,12.989497 L39.7807239,12.989497 L39.7807239,57.5979704 L0.591275979,57.5979704 L0.591275979,12.989497 Z" id="Fill-4020" stroke="#FFFFFF" stroke-width="2"></path>
                <path d="M20.3953547,60.7864753 C18.7159741,60.7864753 17.3419355,62.1654029 17.3419355,63.8759321 C17.3419355,65.5741036 18.7159741,66.965389 20.3953547,66.965389 C22.0747353,66.965389 23.448774,65.5741036 23.448774,63.8759321 C23.448774,62.1654029 22.0747353,60.7864753 20.3953547,60.7864753 L20.3953547,60.7864753 Z" id="Fill-4022" stroke="#FFFFFF"></path>
                <g id="CODE" transform="translate(5.284457, 20.053270)">
                    <rect id="Rectangle-3" fill="#FFCC33" x="0.170087977" y="0.256362829" width="29.0909091" height="3.53211009" rx="1.76605505"></rect>
                    <rect id="Rectangle-3" fill="#CCCCCC" x="0.170087977" y="9.08663806" width="29.0909091" height="3.53211009" rx="1.76605505"></rect>
                    <rect id="Rectangle-3" fill="#CCCCCC" x="0.170087977" y="17.9169133" width="29.0909091" height="3.53211009" rx="1.76605505"></rect>
                </g>
            </g>
            <g id="Handy" transform="translate(50.000000, 35.000000)">
                <path d="M5.45476494,69.8020554 C2.76559319,69.8020554 0.587485749,67.5775567 0.587485749,64.8599608 L0.587485749,58.0403945 L39.5257193,58.0403945 L39.5257193,64.8599608 C39.5257193,67.5775567 37.3476118,69.8020554 34.6584401,69.8020554 L5.45476494,69.8020554 Z M34.6584401,0.595429381 C37.3476118,0.595429381 39.5257193,2.80756975 39.5257193,5.53999564 L39.5257193,12.3570902 L0.587485749,12.3570902 L0.587485749,5.53999564 C0.587485749,2.80756975 2.76559319,0.595429381 5.45476494,0.595429381 L34.6584401,0.595429381 Z M0.587485749,12.9549913 L39.5257193,12.9549913 L39.5257193,57.4449651 L0.587485749,57.4449651 L0.587485749,12.9549913 Z" id="Fill-4020" stroke="#FFFFFF" stroke-width="2"></path>
                <path d="M20.2646153,60.625 C18.596,60.625 17.2307692,62.0002645 17.2307692,63.7062499 C17.2307692,65.3999103 18.596,66.7874998 20.2646153,66.7874998 C21.9332306,66.7874998 23.2984613,65.3999103 23.2984613,63.7062499 C23.2984613,62.0002645 21.9332306,60.625 20.2646153,60.625 L20.2646153,60.625 Z" id="Fill-4022" stroke="#FFFFFF"></path>
                <g id="CODE" transform="translate(6.153846, 20.000000)">
                    <ellipse id="Oval-97" fill="#FFCC33" cx="2.76923077" cy="2.8125" rx="2.76923077" ry="2.8125"></ellipse>
                    <ellipse id="Oval-97-Copy-2" fill="#CCCCCC" cx="17.5384615" cy="2.8125" rx="2.76923077" ry="2.8125"></ellipse>
                    <ellipse id="Oval-97-Copy-5" fill="#CCCCCC" cx="10.1538462" cy="2.8125" rx="2.76923077" ry="2.8125"></ellipse>
                    <ellipse id="Oval-97-Copy-3" fill="#CCCCCC" cx="24.9230769" cy="2.8125" rx="2.76923077" ry="2.8125"></ellipse>
                    <ellipse id="Oval-97-Copy" fill="#FFCC33" cx="10.1538462" cy="10.3125" rx="2.76923077" ry="2.8125"></ellipse>
                    <ellipse id="Oval-97-Copy-4" fill="#CCCCCC" cx="2.76923077" cy="10.3125" rx="2.76923077" ry="2.8125"></ellipse>
                    <ellipse id="Oval-97-Copy-2" fill="#FFCC33" cx="17.5384615" cy="10.3125" rx="2.76923077" ry="2.8125"></ellipse>
                    <ellipse id="Oval-97-Copy-3" fill="#CCCCCC" cx="24.9230769" cy="10.3125" rx="2.76923077" ry="2.8125"></ellipse>
                    <ellipse id="Oval-97-Copy" fill="#CCCCCC" cx="10.1538462" cy="17.8125" rx="2.76923077" ry="2.8125"></ellipse>
                    <ellipse id="Oval-97-Copy-6" fill="#FFCC33" cx="2.76923077" cy="17.8125" rx="2.76923077" ry="2.8125"></ellipse>
                    <ellipse id="Oval-97-Copy-2" fill="#CCCCCC" cx="17.5384615" cy="17.8125" rx="2.76923077" ry="2.8125"></ellipse>
                    <ellipse id="Oval-97-Copy-3" fill="#CCCCCC" cx="24.9230769" cy="17.8125" rx="2.76923077" ry="2.8125"></ellipse>
                    <ellipse id="Oval-97" fill="#CCCCCC" cx="2.76923077" cy="25.3125" rx="2.76923077" ry="2.8125"></ellipse>
                    <ellipse id="Oval-97-Copy-7" fill="#FFCC33" cx="10.1538462" cy="25.3125" rx="2.76923077" ry="2.8125"></ellipse>
                    <ellipse id="Oval-97-Copy-2" fill="#CCCCCC" cx="17.5384615" cy="25.3125" rx="2.76923077" ry="2.8125"></ellipse>
                    <ellipse id="Oval-97-Copy-3" fill="#FFCC33" cx="24.9230769" cy="25.3125" rx="2.76923077" ry="2.8125"></ellipse>
                </g>
            </g>
            <g id="Page-1" transform="translate(320.000000, 48.000000)">
                <path d="M2.5,42.5 L57.5,42.5 L57.5,16.7675 L43.2325,2.5 L2.5,2.5 L2.5,42.5 Z M58.75,45 L1.25,45 C0.56,45 0,44.44125 0,43.75 L0,1.25 C0,0.55875 0.56,0 1.25,0 L43.75,0 C44.08125,0 44.39875,0.13125 44.63375,0.36625 L59.63375,15.36625 C59.8675,15.6 60,15.9175 60,16.25 L60,43.75 C60,44.44125 59.44,45 58.75,45 L58.75,45 Z" id="Fill-1" fill="#FFFFFF"></path>
                <path d="M58.75,17.5 L43.75,17.5 C43.06,17.5 42.5,16.94125 42.5,16.25 L42.5,1.25 C42.5,0.55875 43.06,0 43.75,0 C44.44,0 45,0.55875 45,1.25 L45,15 L58.75,15 C59.44,15 60,15.55875 60,16.25 C60,16.94125 59.44,17.5 58.75,17.5" id="Fill-3" fill="#FFFFFF"></path>
                <path d="M31.25,12.5 L13.75,12.5 C13.06,12.5 12.5,11.94125 12.5,11.25 C12.5,10.55875 13.06,10 13.75,10 L31.25,10 C31.94,10 32.5,10.55875 32.5,11.25 C32.5,11.94125 31.94,12.5 31.25,12.5" id="Fill-5" fill="#FFCC33"></path>
                <path d="M31.25,20 L13.75,20 C13.06,20 12.5,19.44125 12.5,18.75 C12.5,18.05875 13.06,17.5 13.75,17.5 L31.25,17.5 C31.94,17.5 32.5,18.05875 32.5,18.75 C32.5,19.44125 31.94,20 31.25,20" id="Fill-7" fill="#CCCCCC"></path>
                <path d="M46.25,35 L13.75,35 C13.06,35 12.5,34.44125 12.5,33.75 C12.5,33.05875 13.06,32.5 13.75,32.5 L46.25,32.5 C46.94,32.5 47.5,33.05875 47.5,33.75 C47.5,34.44125 46.94,35 46.25,35" id="Fill-9" fill="#CCCCCC"></path>
                <path d="M46.25,27.5 L13.75,27.5 C13.06,27.5 12.5,26.94125 12.5,26.25 C12.5,25.55875 13.06,25 13.75,25 L46.25,25 C46.94,25 47.5,25.55875 47.5,26.25 C47.5,26.94125 46.94,27.5 46.25,27.5" id="Fill-11" fill="#FFCC33"></path>
            </g>
            <g id="Page-1" transform="translate(464.000000, 40.000000)">
                <path d="M23.607443,54.6698679 L1.242497,54.6698679 C0.556638655,54.6698679 0,54.1144718 0,53.4273709 L0,1.242497 C0,0.555396158 0.556638655,0 1.242497,0 L28.577431,0 C28.9066927,0 29.2222869,0.130462185 29.4558764,0.364051621 L41.8808463,12.7890216 C42.1131933,13.0213685 42.244898,13.3369628 42.244898,13.667467 L42.244898,32.304922 L39.759904,32.304922 L39.759904,14.1818607 L28.0630372,2.484994 L2.484994,2.484994 L2.484994,52.1848739 L23.607443,52.1848739 L23.607443,54.6698679 Z" id="Fill-1" fill="#FFFFFF"></path>
                <path d="M41.002401,14.909964 L28.577431,14.909964 C27.8915726,14.909964 27.334934,14.3545678 27.334934,13.667467 L27.334934,1.242497 C27.334934,0.555396158 27.8915726,0 28.577431,0 C29.2632893,0 29.819928,0.555396158 29.819928,1.242497 L29.819928,12.42497 L41.002401,12.42497 C41.6882593,12.42497 42.244898,12.9803661 42.244898,13.667467 C42.244898,14.3545678 41.6882593,14.909964 41.002401,14.909964" id="Fill-3" fill="#FFFFFF"></path>
                <g id="Group-7" transform="translate(28.937575, 29.823531)">
                    <mask id="mask-2" fill="white">
                        <use xlink:href="#path-1"></use>
                    </mask>
                    <g id="Clip-6"></g>
                    <path d="M5.71579052,20.5303992 L3.93404982,26.7689766 L10.1713848,24.9859934 L27.7055024,7.45187575 L23.2499082,2.99628151 L5.71579052,20.5303992 Z M2.12497419,29.8205492 C1.79943998,29.8205492 1.48260324,29.692572 1.24652881,29.4564976 C0.927207083,29.1371759 0.805442377,28.669997 0.929692077,28.2363655 L3.41468607,19.5388866 C3.47308343,19.335117 3.58242317,19.1512275 3.73152281,19.0021279 L22.3714628,0.360945378 C22.8373992,-0.104990996 23.6624172,-0.104990996 24.1283535,0.360945378 L30.3408385,6.57343037 C30.8266549,7.0580042 30.8266549,7.8445048 30.3408385,8.33032113 L11.7008986,26.9715036 C11.5517989,27.1206032 11.3666669,27.229943 11.1641399,27.2870978 L2.46666086,29.7720918 C2.35359364,29.8043968 2.23928391,29.8205492 2.12497419,29.8205492 L2.12497419,29.8205492 Z" id="Fill-5" fill="#FFCC33" mask="url(#mask-2)"></path>
                </g>
                <polygon id="Fill-8" fill="#FFCC33" points="52.5519076 43.1233433 46.3394226 36.9108583 48.0963133 35.1539676 54.3087983 41.3664526"></polygon>
                <path d="M39.759904,57.1584652 C39.4418247,57.1584652 39.1237455,57.0367005 38.8814586,56.7944136 L32.6689736,50.5819286 C32.1831573,50.0961122 32.1831573,49.3108541 32.6689736,48.8250378 C33.1547899,48.3392215 33.940048,48.3392215 34.4258643,48.8250378 L40.6383493,55.0375228 C41.1241657,55.5233391 41.1241657,56.3085972 40.6383493,56.7944136 C40.3960624,57.0367005 40.0779832,57.1584652 39.759904,57.1584652" id="Fill-10" fill="#FFCC33"></path>
            </g>
            <g id="Page-1" transform="translate(605.000000, 31.000000)">
                <path d="M24.6721311,46.9945355 C23.3762568,46.9945355 22.3224044,45.9406831 22.3224044,44.6448087 C22.3224044,43.3489344 23.3762568,42.295082 24.6721311,42.295082 C25.9680055,42.295082 27.0218579,43.3489344 27.0218579,44.6448087 C27.0218579,45.9406831 25.9680055,46.9945355 24.6721311,46.9945355 L24.6721311,46.9945355 Z" id="Fill-1" fill="#FFCC33"></path>
                <path d="M24.6721311,55.8840219 C24.0236066,55.8840219 23.4972678,55.3576831 23.4972678,54.7091585 L23.4972678,45.8201421 C23.4972678,45.1704426 24.0236066,44.6452787 24.6721311,44.6452787 C25.3206557,44.6452787 25.8469945,45.1704426 25.8469945,45.8201421 L25.8469945,54.7091585 C25.8469945,55.3576831 25.3206557,55.8840219 24.6721311,55.8840219" id="Fill-3" fill="#FFCC33"></path>
                <mask id="mask-4" fill="white">
                    <use xlink:href="#path-3"></use>
                </mask>
                <g id="Clip-6"></g>
                <path d="M2.34972678,68.1420765 L46.9945355,68.1420765 L46.9945355,30.5464481 L2.34972678,30.5464481 L2.34972678,68.1420765 Z M0,70.4918033 L49.3442623,70.4918033 L49.3442623,28.1967213 L0,28.1967213 L0,70.4918033 Z" id="Fill-5" fill="#FFFFFF" mask="url(#mask-4)"></path>
                <path d="M42.295082,29.3715847 L39.9453552,29.3715847 L39.9453552,18.7978142 C39.9453552,10.8545628 33.8078689,2.34972678 24.6721311,2.34972678 C15.5363934,2.34972678 9.3989071,10.8545628 9.3989071,18.7978142 L9.3989071,29.3715847 L7.04918033,29.3715847 L7.04918033,18.7978142 C7.04918033,9.71964481 14.130082,0 24.6721311,0 C35.2141803,0 42.295082,9.71964481 42.295082,18.7978142 L42.295082,29.3715847 Z" id="Fill-7" fill="#FFFFFF" mask="url(#mask-4)"></path>
            </g>
        </g>
    </g>
</svg>